<svg width="79" height="16" viewBox="0 0 79 16" fill="none" xmlns="http://www.w3.org/2000/svg">
<g clip-path="url(#clip0_3952_1404)">
<path d="M24.0865 4.2469V7.09936H29.7928V9.93328H24.0865V14.3787H20.4301V1.41296H30.5683V4.2469H24.0865Z" fill="white"/>
<path d="M38.2432 14.638C36.3227 14.638 34.8268 14.1132 33.7558 13.0636C32.697 12.014 32.1676 10.526 32.1676 8.59972V1.41296H35.824V8.48855C35.824 10.5631 36.6428 11.6003 38.2801 11.6003C39.9052 11.6003 40.7177 10.5631 40.7177 8.48855V1.41296H44.3187V8.59972C44.3187 10.526 43.7832 12.014 42.7122 13.0636C41.6534 14.1132 40.1637 14.638 38.2432 14.638Z" fill="white"/>
<path d="M52.4466 10.9335H50.4522V14.3787H46.7958V1.41296H52.7051C53.8747 1.41296 54.8904 1.61054 55.7522 2.00569C56.6139 2.38848 57.2788 2.94416 57.7465 3.67271C58.2144 4.3889 58.4483 5.23476 58.4483 6.21028C58.4483 7.14875 58.2267 7.96992 57.7835 8.67377C57.3526 9.36528 56.7309 9.90859 55.9184 10.3037L58.7068 14.3787H54.7919L52.4466 10.9335ZM54.7549 6.21028C54.7549 5.60522 54.5641 5.13598 54.1825 4.80257C53.8008 4.46917 53.2345 4.30246 52.4835 4.30246H50.4522V8.0996H52.4835C53.2345 8.0996 53.8008 7.93907 54.1825 7.61799C54.5641 7.28458 54.7549 6.81535 54.7549 6.21028Z" fill="white"/>
<path d="M72.7644 1.41296V14.3787H69.7543L64.0481 7.46981V14.3787H60.4655V1.41296H63.4756L69.1819 8.32185V1.41296H72.7644Z" fill="white"/>
<path d="M75.3436 1.41296H79V14.3787H75.3436V1.41296Z" fill="white"/>
<path d="M10.5979 0.399536H4.55769C2.04055 0.399536 0 2.44623 0 4.97096V11.0293C0 13.5541 2.04055 15.6008 4.55769 15.6008H10.5979C13.115 15.6008 15.1555 13.5541 15.1555 11.0293V4.97096C15.1555 2.44623 13.115 0.399536 10.5979 0.399536Z" fill="#CE1A30"/>
<path fill-rule="evenodd" clip-rule="evenodd" d="M9.4423 5.71263C8.83984 5.27493 8.19858 4.73179 7.54054 4.02317C6.85119 3.28108 6.15097 2.81693 5.48532 2.59105C5.46517 2.58421 5.44515 2.57816 5.4249 2.57179C2.83088 1.74491 0.789107 4.53721 2.0499 8.56731C2.36393 9.57074 2.81246 10.3272 3.49236 10.8989C3.58375 10.9757 3.66923 11.0437 3.74931 11.1041L3.09821 12.5046C2.97163 12.7769 3.08907 13.1006 3.36052 13.2275C3.63197 13.3544 3.95464 13.2366 4.08121 12.9644L4.70238 11.6283C4.72742 11.6379 4.75144 11.6473 4.77458 11.6568C5.02538 11.7604 5.29581 11.8535 5.58742 11.9372C5.60744 11.9429 5.62745 11.9486 5.6478 11.9543C6.23639 12.1191 6.91027 12.2467 7.68493 12.3454C8.35544 12.4309 8.98197 12.4394 9.55798 12.3858C9.57796 12.3842 9.59787 12.3821 9.61799 12.3802C10.1141 12.33 10.5718 12.2334 10.9846 12.0985C10.9846 12.0985 11.0985 12.0719 11.2843 12.0005L11.7324 12.9644C11.8589 13.2366 12.1816 13.3544 12.4531 13.2275C12.7245 13.1006 12.842 12.7769 12.7154 12.5046L12.2408 11.4837C12.2706 11.4626 12.3006 11.4408 12.3307 11.4184C13.0447 10.8859 13.4515 10.1921 13.4691 9.46468C13.5163 7.53163 11.7352 7.35841 9.4423 5.71263ZM9.53611 11.1049C10.8067 11.0372 11.7277 10.6777 11.7802 10.1555C11.8366 9.59542 10.8758 9.0179 9.49433 8.70818C9.14931 8.63093 8.77839 8.5702 8.38985 8.53089C7.27665 8.41805 6.26578 8.50422 5.59203 8.72997C5.0899 8.89805 4.77441 9.14354 4.74422 9.44251C4.71004 9.78056 5.0466 10.1245 5.6213 10.4123C6.23777 10.7211 7.12887 10.9653 8.13439 11.0671C8.6289 11.1174 9.10275 11.1281 9.53611 11.1049Z" fill="white"/>
</g>
<defs>
<clipPath id="clip0_3952_1404">
<rect width="79" height="16" fill="white"/>
</clipPath>
</defs>
</svg>
