<svg width="80" height="16" viewBox="0 0 80 16" fill="none" xmlns="http://www.w3.org/2000/svg">
<g clip-path="url(#clip0_2506_5420)">
<path d="M24.5865 4.24688V7.09934H30.2928V9.93326H24.5865V14.3787H20.9301V1.41295H31.0684V4.24688H24.5865Z" fill="white"/>
<path d="M38.7432 14.6379C36.8227 14.6379 35.3268 14.1131 34.2558 13.0635C33.197 12.0139 32.6677 10.526 32.6677 8.5997V1.41295H36.3241V8.48854C36.3241 10.5631 37.1428 11.6003 38.7801 11.6003C40.4052 11.6003 41.2177 10.5631 41.2177 8.48854V1.41295H44.8188V8.5997C44.8188 10.526 44.2832 12.0139 43.2122 13.0635C42.1534 14.1131 40.6638 14.6379 38.7432 14.6379Z" fill="white"/>
<path d="M52.9467 10.9335H50.9522V14.3787H47.2958V1.41295H53.2052C54.3747 1.41295 55.3904 1.61053 56.2522 2.00567C57.114 2.38847 57.7788 2.94414 58.2466 3.67269C58.7144 4.38889 58.9483 5.23475 58.9483 6.21027C58.9483 7.14874 58.7267 7.96991 58.2836 8.67376C57.8526 9.36526 57.2309 9.90858 56.4184 10.3037L59.2069 14.3787H55.2919L52.9467 10.9335ZM55.255 6.21027C55.255 5.6052 55.0642 5.13597 54.6825 4.80256C54.3008 4.46915 53.7345 4.30245 52.9836 4.30245H50.9522V8.09959H52.9836C53.7345 8.09959 54.3008 7.93905 54.6825 7.61797C55.0642 7.28457 55.255 6.81533 55.255 6.21027Z" fill="white"/>
<path d="M73.2644 1.41295V14.3787H70.2543L64.5481 7.46979V14.3787H60.9655V1.41295H63.9756L69.6819 8.32183V1.41295H73.2644Z" fill="white"/>
<path d="M75.8436 1.41295H79.5V14.3787H75.8436V1.41295Z" fill="white"/>
<path d="M11.0979 0.399551H5.05769C2.54055 0.399551 0.5 2.44625 0.5 4.97098V11.0293C0.5 13.5541 2.54055 15.6008 5.05769 15.6008H11.0979C13.615 15.6008 15.6555 13.5541 15.6555 11.0293V4.97098C15.6555 2.44625 13.615 0.399551 11.0979 0.399551Z" fill="#ED5365"/>
<path fill-rule="evenodd" clip-rule="evenodd" d="M9.94232 5.71265C9.33987 5.27495 8.6986 4.7318 8.04056 4.02318C7.35122 3.2811 6.651 2.81694 5.98535 2.59106C5.9652 2.58422 5.94518 2.57818 5.92493 2.5718C3.33091 1.74492 1.28913 4.53723 2.54993 8.56732C2.86396 9.57075 3.31249 10.3272 3.99238 10.8989C4.08378 10.9757 4.16925 11.0437 4.24934 11.1042L3.59824 12.5046C3.47166 12.7769 3.5891 13.1006 3.86055 13.2275C4.13199 13.3544 4.45466 13.2367 4.58124 12.9644L5.20241 11.6283C5.22745 11.6379 5.25146 11.6473 5.27461 11.6568C5.5254 11.7605 5.79584 11.8535 6.08745 11.9372C6.10747 11.9429 6.12748 11.9487 6.14783 11.9543C6.73642 12.1191 7.4103 12.2467 8.18495 12.3455C8.85547 12.4309 9.482 12.4394 10.058 12.3858C10.078 12.3842 10.0979 12.3821 10.118 12.3802C10.6141 12.33 11.0718 12.2334 11.4846 12.0985C11.4846 12.0985 11.5985 12.0719 11.7843 12.0005L12.2324 12.9644C12.359 13.2367 12.6816 13.3544 12.9531 13.2275C13.2245 13.1006 13.342 12.7769 13.2154 12.5046L12.7408 11.4837C12.7706 11.4626 12.8006 11.4408 12.8308 11.4184C13.5447 10.886 13.9515 10.1922 13.9691 9.46469C14.0163 7.53164 12.2352 7.35842 9.94232 5.71265ZM10.0361 11.1049C11.3067 11.0372 12.2277 10.6777 12.2803 10.1555C12.3366 9.59544 11.3758 9.01791 9.99436 8.7082C9.64934 8.63094 9.27842 8.57022 8.88988 8.5309C7.77667 8.41806 6.76581 8.50424 6.09205 8.72999C5.58993 8.89806 5.27443 9.14355 5.24425 9.44252C5.21007 9.78058 5.54663 10.1245 6.12133 10.4123C6.73779 10.7211 7.6289 10.9653 8.63442 11.0671C9.12893 11.1174 9.60277 11.1281 10.0361 11.1049Z" fill="white"/>
</g>
<defs>
<clipPath id="clip0_2506_5420">
<rect width="79" height="16" fill="white" transform="translate(0.5)"/>
</clipPath>
</defs>
</svg>
