<svg width="10" height="7" viewBox="0 0 10 7" fill="none" xmlns="http://www.w3.org/2000/svg">
<path d="M6.21046 5.43241C5.8653 5.88079 5.69272 6.10497 5.48241 6.18555C5.29812 6.25616 5.09424 6.25616 4.90995 6.18555C4.69964 6.10497 4.52706 5.88079 4.1819 5.43241L1.58643 2.06079C1.07693 1.39893 0.82218 1.068 0.825512 0.790399C0.828411 0.54888 0.940273 0.321599 1.12989 0.171978C1.34783 0 1.76546 0 2.60071 0L7.79166 0C8.62691 0 9.04453 0 9.26248 0.171978C9.45209 0.3216 9.56395 0.54888 9.56685 0.790399C9.57018 1.068 9.31543 1.39893 8.80594 2.06079L6.21046 5.43241Z" fill="#A4A4A9"/>
</svg>
