<?xml version="1.0" encoding="UTF-8"?> 
<svg xmlns="http://www.w3.org/2000/svg" width="85" height="17" viewBox="0 0 85 17" fill="none"> 
<path d="M26.2559 4.88191V7.88426H32.2801V10.8671H26.2559V15.5461H22.3958V1.89905H33.0989V4.88191H26.2559Z" fill="white"></path> 
<path d="M41.2014 15.819C39.1739 15.819 37.5947 15.2667 36.4639 14.1619C35.3462 13.0571 34.7873 11.491 34.7873 9.46342V1.89905H38.6475V9.34644C38.6475 11.53 39.5118 12.6217 41.2404 12.6217C42.956 12.6217 43.8139 11.53 43.8139 9.34644V1.89905H47.6155V9.46342C47.6155 11.491 47.0502 13.0571 45.9194 14.1619C44.8016 15.2667 43.229 15.819 41.2014 15.819Z" fill="white"></path> <path d="M56.1963 11.9199H54.0907V15.5461H50.2306V1.89905H56.4692C57.704 1.89905 58.7762 2.107 59.686 2.52291C60.5958 2.92583 61.2977 3.5107 61.7916 4.27754C62.2855 5.03137 62.5324 5.92168 62.5324 6.94846C62.5324 7.93625 62.2985 8.80056 61.8306 9.5414C61.3757 10.2692 60.7193 10.8411 59.8615 11.257L62.8054 15.5461H58.6722L56.1963 11.9199ZM58.6333 6.94846C58.6333 6.3116 58.4318 5.8177 58.0289 5.46678C57.626 5.11585 57.0281 4.94039 56.2353 4.94039H54.0907V8.93703H56.2353C57.0281 8.93703 57.626 8.76807 58.0289 8.43014C58.4318 8.07922 58.6333 7.58532 58.6333 6.94846Z" fill="white"></path> <path d="M77.6462 1.89905V15.5461H74.4684L68.4442 8.27417V15.5461H64.662V1.89905H67.8398L73.864 9.17098V1.89905H77.6462Z" fill="white"></path> <path d="M80.3691 1.89905H84.2292V15.5461H80.3691V1.89905Z" fill="white"></path> <rect x="0.827271" y="0.832382" width="16" height="16" rx="3.38921" fill="#ED5365"></rect> <path fill-rule="evenodd" clip-rule="evenodd" d="M10.7958 6.42471C10.1598 5.96401 9.48278 5.39232 8.78805 4.64646C8.06028 3.86538 7.32105 3.37683 6.61831 3.13908C6.59704 3.13189 6.5759 3.12553 6.55452 3.11881C3.81596 2.24848 1.66041 5.18752 2.99146 9.42943C3.32299 10.4855 3.79651 11.2818 4.51429 11.8835C4.61078 11.9644 4.70101 12.0359 4.78556 12.0995L4.09818 13.5736C3.96455 13.8602 4.08853 14.2008 4.37511 14.3345C4.66168 14.4681 5.00233 14.3441 5.13596 14.0575L5.79174 12.6512C5.81818 12.6613 5.84352 12.6712 5.86796 12.6813C6.13273 12.7904 6.41823 12.8883 6.7261 12.9764C6.74723 12.9824 6.76836 12.9884 6.78985 12.9944C7.41123 13.1678 8.12265 13.3021 8.94046 13.406C9.64835 13.496 10.3098 13.5049 10.9179 13.4485C10.939 13.4468 10.96 13.4447 10.9812 13.4426C11.505 13.3898 11.9882 13.2881 12.424 13.1462C12.424 13.1462 12.5443 13.1181 12.7404 13.043L13.2135 14.0575C13.3471 14.3441 13.6877 14.4681 13.9743 14.3345C14.2609 14.2008 14.3849 13.8602 14.2512 13.5736L13.7502 12.4991C13.7816 12.4769 13.8133 12.4539 13.8452 12.4303C14.5989 11.8699 15.0284 11.1396 15.0469 10.3739C15.0967 8.33929 13.2164 8.15696 10.7958 6.42471ZM10.8948 12.1004C12.2362 12.029 13.2085 11.6507 13.264 11.101C13.3235 10.5115 12.3091 9.90364 10.8507 9.57768C10.4864 9.49633 10.0948 9.4324 9.68469 9.39103C8.50945 9.2723 7.44226 9.36301 6.73095 9.60057C6.20085 9.77754 5.86778 10.0359 5.83591 10.3506C5.79983 10.7064 6.15514 11.0684 6.76186 11.3713C7.41268 11.6963 8.35344 11.9533 9.41496 12.0606C9.93707 12.1135 10.4373 12.1247 10.8948 12.1004Z" fill="white"></path> </svg> 