<svg width="20" height="20" viewBox="0 0 20 20" fill="none" xmlns="http://www.w3.org/2000/svg">
<path d="M10 20C15.5228 20 20 15.5228 20 10C20 4.47715 15.5228 0 10 0C4.47715 0 0 4.47715 0 10C0 15.5228 4.47715 20 10 20Z" fill="#ED5365"/>
<path d="M8.63356 11.4189L11.4189 8.63354" stroke="white" stroke-width="1.5" stroke-linecap="round" stroke-linejoin="round"/>
<path d="M9.80842 7.48343L11.231 6.06087C11.9788 5.31303 13.1913 5.31303 13.9391 6.06087C14.687 6.8087 14.687 8.02118 13.9391 8.76901L12.8313 9.8769M10.1952 12.5129L8.76903 13.9391C8.02119 14.6869 6.80871 14.6869 6.06088 13.9391C5.31304 13.1913 5.31304 11.9788 6.06088 11.231L7.41495 9.8769" stroke="white" stroke-width="1.5" stroke-linecap="round" stroke-linejoin="round"/>
</svg>
