<svg width="20" height="20" viewBox="0 0 20 20" fill="none" xmlns="http://www.w3.org/2000/svg">
<circle cx="10" cy="10" r="10" fill="#007AB7"/>
<path fill-rule="evenodd" clip-rule="evenodd" d="M5.41 7.75016H7.37767V14.0872H5.41V7.75016ZM6.39749 4.59998C7.02656 4.59998 7.53859 5.1128 7.53859 5.74284C7.53859 6.37288 7.02656 6.8857 6.39749 6.8857C5.76477 6.8857 5.25639 6.37288 5.25639 5.74284C5.25639 5.1128 5.76477 4.59998 6.39749 4.59998Z" fill="white"/>
<path fill-rule="evenodd" clip-rule="evenodd" d="M8.61386 7.7502H10.4974V8.61834H10.523C10.7863 8.12016 11.4264 7.59635 12.3846 7.59635C14.3742 7.59635 14.7436 8.90771 14.7436 10.6147V14.0872H12.7796V11.0066C12.7796 10.2704 12.7686 9.3253 11.7592 9.3253C10.7351 9.3253 10.5815 10.1275 10.5815 10.9517V14.0872H8.61752V7.7502H8.61386Z" fill="white"/>
</svg>
