<svg width="20" height="20" viewBox="0 0 20 20" fill="none" xmlns="http://www.w3.org/2000/svg">
<path d="M10 20C15.5228 20 20 15.5228 20 10C20 4.47717 15.5228 0 10 0C4.47717 0 0 4.47717 0 10C0 15.5228 4.47717 20 10 20Z" fill="url(#paint0_linear_2830_817)"/>
<path d="M3.72434 10.4892C4.89333 9.84526 6.19825 9.30784 7.4175 8.76767C9.51508 7.88292 11.621 7.01351 13.7482 6.20409C14.162 6.06617 14.9057 5.9313 14.9786 6.54463C14.9387 7.4128 14.7744 8.27588 14.6618 9.13897C14.3758 11.037 14.0453 12.9285 13.723 14.8202C13.612 15.4503 12.8226 15.7765 12.3175 15.3733C11.1037 14.5534 9.8805 13.7415 8.68217 12.9025C8.28963 12.5037 8.65363 11.9309 9.00421 11.646C10.004 10.6608 11.0642 9.82372 12.0117 8.78755C12.2673 8.17034 11.5121 8.69051 11.263 8.84988C9.89438 9.79305 8.55921 10.7938 7.11621 11.6227C6.37913 12.0285 5.52004 11.6817 4.78329 11.4553C4.1227 11.1818 3.15469 10.9063 3.72428 10.4892L3.72434 10.4892Z" fill="white"/>
<defs>
<linearGradient id="paint0_linear_2830_817" x1="7.50117" y1="0.834" x2="2.50117" y2="12.5" gradientUnits="userSpaceOnUse">
<stop stop-color="#37AEE2"/>
<stop offset="1" stop-color="#1E96C8"/>
</linearGradient>
</defs>
</svg>
