<svg width="20" height="20" viewBox="0 0 20 20" fill="none" xmlns="http://www.w3.org/2000/svg">
<path d="M10 20C15.5228 20 20 15.5228 20 10C20 4.47715 15.5228 0 10 0C4.47715 0 0 4.47715 0 10C0 15.5228 4.47715 20 10 20Z" fill="#25D366"/>
<path fill-rule="evenodd" clip-rule="evenodd" d="M10.3293 15.5636H10.3268C9.33163 15.5632 8.35376 15.3135 7.48524 14.8398L4.33301 15.6667L5.1766 12.5854C4.65623 11.6836 4.38242 10.6606 4.38286 9.61262C4.38417 6.33406 7.05168 3.66669 10.3292 3.66669C11.9199 3.66737 13.4129 4.28663 14.5356 5.41061C15.6583 6.53453 16.2762 8.02849 16.2756 9.61731C16.2743 12.8951 13.6078 15.5622 10.3293 15.5636ZM7.63128 13.7633L7.81176 13.8704C8.57058 14.3207 9.44042 14.559 10.3273 14.5593H10.3293C13.0534 14.5593 15.2705 12.3422 15.2716 9.61697C15.2721 8.29636 14.7585 7.05464 13.8254 6.12043C12.8922 5.18622 11.6513 4.67149 10.3312 4.67103C7.60506 4.67103 5.38791 6.88798 5.38683 9.61297C5.38645 10.5468 5.64774 11.4563 6.14248 12.2432L6.25999 12.4302L5.76071 14.254L7.63128 13.7633ZM13.1215 10.8975C13.2251 10.9476 13.2951 10.9814 13.325 11.0313C13.3621 11.0933 13.3621 11.3908 13.2384 11.7379C13.1145 12.0849 12.5209 12.4017 12.2355 12.4443C11.9795 12.4826 11.6556 12.4986 11.2997 12.3854C11.0839 12.317 10.8071 12.2256 10.4526 12.0725C9.05974 11.471 8.11843 10.121 7.94053 9.86586C7.92807 9.84799 7.91935 9.83549 7.91449 9.829L7.91329 9.8274C7.83466 9.72249 7.30781 9.01953 7.30781 8.29201C7.30781 7.60762 7.64399 7.2489 7.79874 7.08378C7.80934 7.07246 7.81909 7.06206 7.82782 7.05252C7.96401 6.90377 8.12498 6.86658 8.22403 6.86658C8.32307 6.86658 8.42222 6.8675 8.50879 6.87185C8.51947 6.87238 8.53058 6.87232 8.54207 6.87225C8.62865 6.87174 8.7366 6.87111 8.84308 7.1269C8.88405 7.22533 8.94399 7.37126 9.00721 7.52517C9.13506 7.83643 9.27632 8.18034 9.30118 8.23011C9.33833 8.30448 9.36308 8.39121 9.31356 8.49042C9.30613 8.50529 9.29925 8.51933 9.29268 8.53274C9.25549 8.60868 9.22812 8.66454 9.16499 8.73826C9.14017 8.76724 9.11451 8.79849 9.08885 8.82973C9.03774 8.89199 8.98662 8.95423 8.94212 8.99857C8.86774 9.07266 8.79031 9.15304 8.87698 9.30179C8.96364 9.45054 9.26183 9.93707 9.70353 10.3311C10.1783 10.7546 10.591 10.9336 10.8002 11.0243C10.841 11.042 10.8741 11.0564 10.8984 11.0685C11.0469 11.1429 11.1336 11.1305 11.2202 11.0313C11.3069 10.9322 11.5917 10.5975 11.6907 10.4487C11.7897 10.3 11.8888 10.3248 12.025 10.3744C12.1612 10.424 12.8917 10.7834 13.0403 10.8578C13.0693 10.8723 13.0964 10.8854 13.1215 10.8975Z" fill="#FDFDFD"/>
</svg>
